<?xml version="1.0" encoding="UTF-8"?><svg width="82.101mm" height="51.3131mm" viewBox="0 0 320 200" xmlns="http://www.w3.org/2000/svg" xmlns:xlink="http://www.w3.org/1999/xlink"><g fill="none" stroke="black" stroke-width="1" fill-rule="evenodd" stroke-linecap="square" stroke-linejoin="bevel"><g clip-path="none" fill="#ffffff" fill-opacity="1" opacity="1" stroke="none" stroke-opacity="0" transform="matrix(1,0,0,1,0,0)"><path d="M0,0 L320,0 L320,200 L0,200 L0,0 z" fill-rule="evenodd" vector-effect="none"/></g><defs><clipPath id="clip3"><path d="M-82.5675,-76.8615 L834.232,-76.8615 L834.232,345.539 L-82.5675,345.539 L-82.5675,-76.8615 z"/></clipPath></defs><g clip-path="url(#clip3)" fill="#ffffff" fill-opacity="1" opacity="1" stroke="none" stroke-opacity="0" transform="matrix(0.34904,0,0,0.34904,28.8194,53.1105)"><path d="M0,0 L30,0 L30,30 L0,30 L0,0 z" fill-rule="evenodd" vector-effect="none"/></g><defs><clipPath id="clip7"><path d="M0,0 L31,0 L31,31 L0,31 L0,0 z"/></clipPath></defs><g clip-path="url(#clip7)" fill="none" opacity="1" stroke="none" stroke-opacity="0" transform="matrix(0.34904,0,0,0.34904,28.8194,53.1105)"><path d="M0,0 L31,0 L31,31 L0,31 L0,0 z" fill-rule="evenodd" vector-effect="none"/></g><defs><clipPath id="clip17"><path d="M-1,-1 L32,-1 L32,32 L-1,32 L-1,-1 z"/></clipPath></defs><g clip-path="url(#clip17)" fill="#000000" fill-opacity="1" opacity="1" stroke="none" stroke-opacity="0" transform="matrix(0.34904,0,0,0.34904,28.8194,53.1105)"><path d="M13.0469,17.1719 L14.6719,17.1719 L14.6719,11.6094 L12.9062,11.9531 L12.9062,11.0625 L14.6562,10.7031 L15.6406,10.7031 L15.6406,17.1719 L17.25,17.1719 L17.25,18 L13.0469,18 L13.0469,17.1719 z" fill-rule="nonzero" vector-effect="none"/></g><defs><clipPath id="clip34"><path d="M-82.5675,-76.8615 L834.232,-76.8615 L834.232,345.539 L-82.5675,345.539 L-82.5675,-76.8615 z"/></clipPath></defs><g clip-path="url(#clip34)" fill="none" opacity="1" stroke="#000000" stroke-linecap="butt" stroke-linejoin="miter" stroke-miterlimit="2" stroke-opacity="1" stroke-width="1" transform="matrix(0.34904,0,0,0.34904,28.8194,53.1105)"><path d="M0,0 L30,0 L30,30 L0,30 L0,0 z" fill-rule="evenodd" vector-effect="none"/></g><defs><clipPath id="clip37"><path d="M-82.5675,-131.861 L834.232,-131.861 L834.232,290.539 L-82.5675,290.539 L-82.5675,-131.861 z"/></clipPath></defs><g clip-path="url(#clip37)" fill="#ffffff" fill-opacity="1" opacity="1" stroke="none" stroke-opacity="0" transform="matrix(0.34904,0,0,0.34904,28.8194,72.3077)"><path d="M0,0 L30,0 L30,30 L0,30 L0,0 z" fill-rule="evenodd" vector-effect="none"/></g><defs><clipPath id="clip41"><path d="M0,0 L31,0 L31,31 L0,31 L0,0 z"/></clipPath></defs><g clip-path="url(#clip41)" fill="none" opacity="1" stroke="none" stroke-opacity="0" transform="matrix(0.34904,0,0,0.34904,28.8194,72.3077)"><path d="M0,0 L31,0 L31,31 L0,31 L0,0 z" fill-rule="evenodd" vector-effect="none"/></g><defs><clipPath id="clip51"><path d="M-1,-1 L32,-1 L32,32 L-1,32 L-1,-1 z"/></clipPath></defs><g clip-path="url(#clip51)" fill="#000000" fill-opacity="1" opacity="1" stroke="none" stroke-opacity="0" transform="matrix(0.34904,0,0,0.34904,28.8194,72.3077)"><path d="M8.75,10.7031 L14.9219,10.7031 L14.9219,11.5469 L12.3281,11.5469 L12.3281,18 L11.3438,18 L11.3438,11.5469 L8.75,11.5469 L8.75,10.7031 M20.3594,14.7031 L20.3594,18 L19.4688,18 L19.4688,14.7344 C19.4688,14.2135 19.3672,13.8255 19.1641,13.5703 C18.9609,13.3151 18.6562,13.1875 18.25,13.1875 C17.7708,13.1875 17.3906,13.3411 17.1094,13.6484 C16.8281,13.9557 16.6875,14.375 16.6875,14.9062 L16.6875,18 L15.7812,18 L15.7812,12.5312 L16.6875,12.5312 L16.6875,13.375 C16.9062,13.0521 17.1615,12.8099 17.4531,12.6484 C17.7448,12.487 18.0781,12.4062 18.4531,12.4062 C19.0781,12.4062 19.5521,12.599 19.875,12.9844 C20.1979,13.3698 20.3594,13.9427 20.3594,14.7031" fill-rule="nonzero" vector-effect="none"/></g><defs><clipPath id="clip68"><path d="M-82.5675,-131.861 L834.232,-131.861 L834.232,290.539 L-82.5675,290.539 L-82.5675,-131.861 z"/></clipPath></defs><g clip-path="url(#clip68)" fill="none" opacity="1" stroke="#000000" stroke-linecap="butt" stroke-linejoin="miter" stroke-miterlimit="2" stroke-opacity="1" stroke-width="1" transform="matrix(0.34904,0,0,0.34904,28.8194,72.3077)"><path d="M0,0 L30,0 L30,30 L0,30 L0,0 z" fill-rule="evenodd" vector-effect="none"/></g><defs><clipPath id="clip71"><path d="M-82.5675,-196.861 L834.232,-196.861 L834.232,225.539 L-82.5675,225.539 L-82.5675,-196.861 z"/></clipPath></defs><g clip-path="url(#clip71)" fill="#ffffff" fill-opacity="1" opacity="1" stroke="none" stroke-opacity="0" transform="matrix(0.34904,0,0,0.34904,28.8194,94.9953)"><path d="M0,0 L30,0 L30,30 L0,30 L0,0 z" fill-rule="evenodd" vector-effect="none"/></g><defs><clipPath id="clip75"><path d="M0,0 L31,0 L31,31 L0,31 L0,0 z"/></clipPath></defs><g clip-path="url(#clip75)" fill="none" opacity="1" stroke="none" stroke-opacity="0" transform="matrix(0.34904,0,0,0.34904,28.8194,94.9953)"><path d="M0,0 L31,0 L31,31 L0,31 L0,0 z" fill-rule="evenodd" vector-effect="none"/></g><defs><clipPath id="clip85"><path d="M-1,-1 L32,-1 L32,32 L-1,32 L-1,-1 z"/></clipPath></defs><g clip-path="url(#clip85)" fill="#000000" fill-opacity="1" opacity="1" stroke="none" stroke-opacity="0" transform="matrix(0.34904,0,0,0.34904,28.8194,94.9953)"><path d="M13.0469,17.1719 L14.6719,17.1719 L14.6719,11.6094 L12.9062,11.9531 L12.9062,11.0625 L14.6562,10.7031 L15.6406,10.7031 L15.6406,17.1719 L17.25,17.1719 L17.25,18 L13.0469,18 L13.0469,17.1719 z" fill-rule="nonzero" vector-effect="none"/></g><defs><clipPath id="clip102"><path d="M-82.5675,-196.861 L834.232,-196.861 L834.232,225.539 L-82.5675,225.539 L-82.5675,-196.861 z"/></clipPath></defs><g clip-path="url(#clip102)" fill="none" opacity="1" stroke="#000000" stroke-linecap="butt" stroke-linejoin="miter" stroke-miterlimit="2" stroke-opacity="1" stroke-width="1" transform="matrix(0.34904,0,0,0.34904,28.8194,94.9953)"><path d="M0,0 L30,0 L30,30 L0,30 L0,0 z" fill-rule="evenodd" vector-effect="none"/></g><defs><clipPath id="clip105"><path d="M-177.568,-98.8615 L739.232,-98.8615 L739.232,323.539 L-177.568,323.539 L-177.568,-98.8615 z"/></clipPath></defs><g clip-path="url(#clip105)" fill="#ffffff" fill-opacity="1" opacity="1" stroke="none" stroke-opacity="0" transform="matrix(0.34904,0,0,0.34904,61.9782,60.7893)"><path d="M0,0 L30,0 L30,31 L0,31 L0,0 z" fill-rule="evenodd" vector-effect="none"/></g><defs><clipPath id="clip109"><path d="M-7,-8 L23,-8 L23,23 L-7,23 L-7,-8 z"/></clipPath></defs><g clip-path="url(#clip109)" fill="none" opacity="1" stroke="#000000" stroke-linecap="butt" stroke-linejoin="miter" stroke-miterlimit="2" stroke-opacity="1" stroke-width="2.865" transform="matrix(0.34904,0,0,0.34904,64.4215,63.5817)"><text fill="#000000" fill-opacity="1" font-family="Liberation Sans" font-size="10" font-style="normal" font-weight="400" stroke="none" textLength="5" x="-2.5" xml:space="preserve" y="3.5">x</text></g><defs><clipPath id="clip110"><path d="M-7,-23 L23,-23 L23,8 L-7,8 L-7,-23 z"/></clipPath></defs><g clip-path="url(#clip110)" fill="none" opacity="1" stroke="#000000" stroke-linecap="butt" stroke-linejoin="miter" stroke-miterlimit="2" stroke-opacity="1" stroke-width="2.865" transform="matrix(0.34904,0,0,0.34904,64.4215,68.8173)"><text fill="#000000" fill-opacity="1" font-family="Liberation Sans" font-size="10" font-style="normal" font-weight="400" stroke="none" textLength="5.48438" x="-2.73438" xml:space="preserve" y="3.5">÷</text></g><defs><clipPath id="clip115"><path d="M-177.568,-98.8615 L739.232,-98.8615 L739.232,323.539 L-177.568,323.539 L-177.568,-98.8615 z"/></clipPath></defs><g clip-path="url(#clip115)" fill="none" opacity="1" stroke="#000000" stroke-linecap="butt" stroke-linejoin="miter" stroke-miterlimit="2" stroke-opacity="1" stroke-width="1" transform="matrix(0.34904,0,0,0.34904,61.9782,60.7893)"><path d="M0,0 L30,0 L30,31 L0,31 L0,0 z" fill-rule="evenodd" vector-effect="none"/></g><defs><clipPath id="clip118"><path d="M-177.568,-228.861 L739.232,-228.861 L739.232,193.539 L-177.568,193.539 L-177.568,-228.861 z"/></clipPath></defs><g clip-path="url(#clip118)" fill="#ffffff" fill-opacity="1" opacity="1" stroke="none" stroke-opacity="0" transform="matrix(0.34904,0,0,0.34904,61.9782,106.165)"><path d="M0,0 L30,0 L30,31 L0,31 L0,0 z" fill-rule="evenodd" vector-effect="none"/></g><defs><clipPath id="clip122"><path d="M-7,-8 L23,-8 L23,23 L-7,23 L-7,-8 z"/></clipPath></defs><g clip-path="url(#clip122)" fill="none" opacity="1" stroke="#000000" stroke-linecap="butt" stroke-linejoin="miter" stroke-miterlimit="2" stroke-opacity="1" stroke-width="2.865" transform="matrix(0.34904,0,0,0.34904,64.4215,108.957)"><text fill="#000000" fill-opacity="1" font-family="Liberation Sans" font-size="10" font-style="normal" font-weight="400" stroke="none" textLength="5" x="-2.5" xml:space="preserve" y="3.5">x</text></g><defs><clipPath id="clip123"><path d="M-7,-23 L23,-23 L23,8 L-7,8 L-7,-23 z"/></clipPath></defs><g clip-path="url(#clip123)" fill="none" opacity="1" stroke="#000000" stroke-linecap="butt" stroke-linejoin="miter" stroke-miterlimit="2" stroke-opacity="1" stroke-width="2.865" transform="matrix(0.34904,0,0,0.34904,64.4215,114.192)"><text fill="#000000" fill-opacity="1" font-family="Liberation Sans" font-size="10" font-style="normal" font-weight="400" stroke="none" textLength="5.48438" x="-2.73438" xml:space="preserve" y="3.5">÷</text></g><defs><clipPath id="clip128"><path d="M-177.568,-228.861 L739.232,-228.861 L739.232,193.539 L-177.568,193.539 L-177.568,-228.861 z"/></clipPath></defs><g clip-path="url(#clip128)" fill="none" opacity="1" stroke="#000000" stroke-linecap="butt" stroke-linejoin="miter" stroke-miterlimit="2" stroke-opacity="1" stroke-width="1" transform="matrix(0.34904,0,0,0.34904,61.9782,106.165)"><path d="M0,0 L30,0 L30,31 L0,31 L0,0 z" fill-rule="evenodd" vector-effect="none"/></g><defs><clipPath id="clip131"><path d="M-247.568,-143.861 L669.232,-143.861 L669.232,278.539 L-247.568,278.539 L-247.568,-143.861 z"/></clipPath></defs><g clip-path="url(#clip131)" fill="#ffffff" fill-opacity="1" opacity="1" stroke="none" stroke-opacity="0" transform="matrix(0.34904,0,0,0.34904,86.411,76.4962)"><path d="M0,0 L30,0 L30,31 L0,31 L0,0 z" fill-rule="nonzero" vector-effect="none"/></g><defs><clipPath id="clip135"><path d="M-5,-8 L25,-8 L25,23 L-5,23 L-5,-8 z"/></clipPath></defs><g clip-path="url(#clip135)" fill="none" opacity="1" stroke="#000000" stroke-linecap="butt" stroke-linejoin="miter" stroke-miterlimit="2" stroke-opacity="1" stroke-width="2.865" transform="matrix(0.34904,0,0,0.34904,88.1562,79.2885)"><text fill="#000000" fill-opacity="1" font-family="Liberation Sans" font-size="10" font-style="normal" font-weight="400" stroke="none" textLength="5.82812" x="-2.90625" xml:space="preserve" y="3.5">+</text></g><defs><clipPath id="clip136"><path d="M-5,-23 L25,-23 L25,8 L-5,8 L-5,-23 z"/></clipPath></defs><g clip-path="url(#clip136)" fill="none" opacity="1" stroke="#000000" stroke-linecap="butt" stroke-linejoin="miter" stroke-miterlimit="2" stroke-opacity="1" stroke-width="2.865" transform="matrix(0.34904,0,0,0.34904,88.1562,84.5241)"><text fill="#000000" fill-opacity="1" font-family="Liberation Sans" font-size="10" font-style="normal" font-weight="400" stroke="none" textLength="5.82812" x="-2.90625" xml:space="preserve" y="3.5">−</text></g><defs><clipPath id="clip141"><path d="M-247.568,-143.861 L669.232,-143.861 L669.232,278.539 L-247.568,278.539 L-247.568,-143.861 z"/></clipPath></defs><g clip-path="url(#clip141)" fill="none" opacity="1" stroke="#000000" stroke-linecap="butt" stroke-linejoin="miter" stroke-miterlimit="2" stroke-opacity="1" stroke-width="1" transform="matrix(0.34904,0,0,0.34904,86.411,76.4962)"><path d="M0,0 L30,0 L30,31 L0,31 L0,0 z" fill-rule="nonzero" vector-effect="none"/></g><defs><clipPath id="clip144"><path d="M-222.568,-301.861 L694.232,-301.861 L694.232,120.539 L-222.568,120.539 L-222.568,-301.861 z"/></clipPath></defs><g clip-path="url(#clip144)" fill="#ffffff" fill-opacity="1" opacity="1" stroke="none" stroke-opacity="0" transform="matrix(0.34904,0,0,0.34904,77.685,131.644)"><path d="M0,0 L30,0 L30,30 L0,30 L0,0 z" fill-rule="evenodd" vector-effect="none"/></g><defs><clipPath id="clip148"><path d="M0,0 L31,0 L31,31 L0,31 L0,0 z"/></clipPath></defs><g clip-path="url(#clip148)" fill="none" opacity="1" stroke="none" stroke-opacity="0" transform="matrix(0.34904,0,0,0.34904,77.685,131.644)"><path d="M0,0 L31,0 L31,31 L0,31 L0,0 z" fill-rule="evenodd" vector-effect="none"/></g><defs><clipPath id="clip158"><path d="M-1,-1 L32,-1 L32,32 L-1,32 L-1,-1 z"/></clipPath></defs><g clip-path="url(#clip158)" fill="#000000" fill-opacity="1" opacity="1" stroke="none" stroke-opacity="0" transform="matrix(0.34904,0,0,0.34904,77.685,131.644)"><path d="M17.3125,14.7031 L17.3125,18 L16.4219,18 L16.4219,14.7344 C16.4219,14.2135 16.3203,13.8255 16.1172,13.5703 C15.9141,13.3151 15.6094,13.1875 15.2031,13.1875 C14.724,13.1875 14.3438,13.3411 14.0625,13.6484 C13.7812,13.9557 13.6406,14.375 13.6406,14.9062 L13.6406,18 L12.7344,18 L12.7344,12.5312 L13.6406,12.5312 L13.6406,13.375 C13.8594,13.0521 14.1146,12.8099 14.4062,12.6484 C14.6979,12.487 15.0312,12.4062 15.4062,12.4062 C16.0312,12.4062 16.5052,12.599 16.8281,12.9844 C17.151,13.3698 17.3125,13.9427 17.3125,14.7031 z" fill-rule="nonzero" vector-effect="none"/></g><defs><clipPath id="clip175"><path d="M-222.568,-301.861 L694.232,-301.861 L694.232,120.539 L-222.568,120.539 L-222.568,-301.861 z"/></clipPath></defs><g clip-path="url(#clip175)" fill="none" opacity="1" stroke="#000000" stroke-linecap="butt" stroke-linejoin="miter" stroke-miterlimit="2" stroke-opacity="1" stroke-width="1" transform="matrix(0.34904,0,0,0.34904,77.685,131.644)"><path d="M0,0 L30,0 L30,30 L0,30 L0,0 z" fill-rule="evenodd" vector-effect="none"/></g><defs><clipPath id="clip178"><path d="M-222.568,-356.861 L694.232,-356.861 L694.232,65.5385 L-222.568,65.5385 L-222.568,-356.861 z"/></clipPath></defs><g clip-path="url(#clip178)" fill="#ffffff" fill-opacity="1" opacity="1" stroke="none" stroke-opacity="0" transform="matrix(0.34904,0,0,0.34904,77.685,150.842)"><path d="M0,0 L30,0 L30,30 L0,30 L0,0 z" fill-rule="evenodd" vector-effect="none"/></g><defs><clipPath id="clip182"><path d="M0,0 L31,0 L31,31 L0,31 L0,0 z"/></clipPath></defs><g clip-path="url(#clip182)" fill="none" opacity="1" stroke="none" stroke-opacity="0" transform="matrix(0.34904,0,0,0.34904,77.685,150.842)"><path d="M0,0 L31,0 L31,31 L0,31 L0,0 z" fill-rule="evenodd" vector-effect="none"/></g><defs><clipPath id="clip192"><path d="M-1,-1 L32,-1 L32,32 L-1,32 L-1,-1 z"/></clipPath></defs><g clip-path="url(#clip192)" fill="#000000" fill-opacity="1" opacity="1" stroke="none" stroke-opacity="0" transform="matrix(0.34904,0,0,0.34904,77.685,150.842)"><path d="M12.7031,10.7031 L13.6875,10.7031 L13.6875,13.7969 L16.9531,10.7031 L18.2344,10.7031 L14.6094,14.1094 L18.4844,18 L17.1875,18 L13.6875,14.4844 L13.6875,18 L12.7031,18 L12.7031,10.7031 z" fill-rule="nonzero" vector-effect="none"/></g><defs><clipPath id="clip209"><path d="M-222.568,-356.861 L694.232,-356.861 L694.232,65.5385 L-222.568,65.5385 L-222.568,-356.861 z"/></clipPath></defs><g clip-path="url(#clip209)" fill="none" opacity="1" stroke="#000000" stroke-linecap="butt" stroke-linejoin="miter" stroke-miterlimit="2" stroke-opacity="1" stroke-width="1" transform="matrix(0.34904,0,0,0.34904,77.685,150.842)"><path d="M0,0 L30,0 L30,30 L0,30 L0,0 z" fill-rule="evenodd" vector-effect="none"/></g><defs><clipPath id="clip212"><path d="M-312.568,-323.861 L604.232,-323.861 L604.232,98.5385 L-312.568,98.5385 L-312.568,-323.861 z"/></clipPath></defs><g clip-path="url(#clip212)" fill="#ffffff" fill-opacity="1" opacity="1" stroke="none" stroke-opacity="0" transform="matrix(0.34904,0,0,0.34904,109.099,139.323)"><path d="M0,0 L30,0 L30,31 L0,31 L0,0 z" fill-rule="evenodd" vector-effect="none"/></g><defs><clipPath id="clip216"><path d="M-15,-15 L15,-15 L15,16 L-15,16 L-15,-15 z"/></clipPath></defs><g clip-path="url(#clip216)" fill="none" opacity="1" stroke="#000000" stroke-linecap="butt" stroke-linejoin="miter" stroke-miterlimit="2" stroke-opacity="1" stroke-width="2.865" transform="matrix(0.34904,0,0,0.34904,114.334,144.559)"><text fill="#000000" fill-opacity="1" font-family="Liberation Sans" font-size="10" font-style="normal" font-weight="400" stroke="none" textLength="5" x="-2.5" xml:space="preserve" y="3.5">x</text></g><defs><clipPath id="clip221"><path d="M-312.568,-323.861 L604.232,-323.861 L604.232,98.5385 L-312.568,98.5385 L-312.568,-323.861 z"/></clipPath></defs><g clip-path="url(#clip221)" fill="none" opacity="1" stroke="#000000" stroke-linecap="butt" stroke-linejoin="miter" stroke-miterlimit="2" stroke-opacity="1" stroke-width="1" transform="matrix(0.34904,0,0,0.34904,109.099,139.323)"><path d="M0,0 L30,0 L30,31 L0,31 L0,0 z" fill-rule="evenodd" vector-effect="none"/></g><defs><clipPath id="clip224"><path d="M-422.568,-198.861 L494.232,-198.861 L494.232,223.539 L-422.568,223.539 L-422.568,-198.861 z"/></clipPath></defs><g clip-path="url(#clip224)" fill="#ffffff" fill-opacity="1" opacity="1" stroke="none" stroke-opacity="0" transform="matrix(0.34904,0,0,0.34904,147.493,95.6934)"><path d="M0,0 L30,0 L30,31 L0,31 L0,0 z" fill-rule="evenodd" vector-effect="none"/></g><defs><clipPath id="clip228"><path d="M-7,-8 L23,-8 L23,23 L-7,23 L-7,-8 z"/></clipPath></defs><g clip-path="url(#clip228)" fill="none" opacity="1" stroke="#000000" stroke-linecap="butt" stroke-linejoin="miter" stroke-miterlimit="2" stroke-opacity="1" stroke-width="2.865" transform="matrix(0.34904,0,0,0.34904,149.936,98.4857)"><text fill="#000000" fill-opacity="1" font-family="Liberation Sans" font-size="10" font-style="normal" font-weight="400" stroke="none" textLength="5" x="-2.5" xml:space="preserve" y="3.5">x</text></g><defs><clipPath id="clip229"><path d="M-7,-23 L23,-23 L23,8 L-7,8 L-7,-23 z"/></clipPath></defs><g clip-path="url(#clip229)" fill="none" opacity="1" stroke="#000000" stroke-linecap="butt" stroke-linejoin="miter" stroke-miterlimit="2" stroke-opacity="1" stroke-width="2.865" transform="matrix(0.34904,0,0,0.34904,149.936,103.721)"><text fill="#000000" fill-opacity="1" font-family="Liberation Sans" font-size="10" font-style="normal" font-weight="400" stroke="none" textLength="5.48438" x="-2.73438" xml:space="preserve" y="3.5">÷</text></g><defs><clipPath id="clip234"><path d="M-422.568,-198.861 L494.232,-198.861 L494.232,223.539 L-422.568,223.539 L-422.568,-198.861 z"/></clipPath></defs><g clip-path="url(#clip234)" fill="none" opacity="1" stroke="#000000" stroke-linecap="butt" stroke-linejoin="miter" stroke-miterlimit="2" stroke-opacity="1" stroke-width="1" transform="matrix(0.34904,0,0,0.34904,147.493,95.6934)"><path d="M0,0 L30,0 L30,31 L0,31 L0,0 z" fill-rule="evenodd" vector-effect="none"/></g><defs><clipPath id="clip237"><path d="M-257.568,-36.8615 L659.232,-36.8615 L659.232,385.539 L-257.568,385.539 L-257.568,-36.8615 z"/></clipPath></defs><g clip-path="url(#clip237)" fill="#ffffff" fill-opacity="1" opacity="1" stroke="none" stroke-opacity="0" transform="matrix(0.34904,0,0,0.34904,89.9014,39.1489)"><path d="M0,0 L30,0 L30,30 L0,30 L0,0 z" fill-rule="evenodd" vector-effect="none"/></g><defs><clipPath id="clip241"><path d="M0,0 L31,0 L31,31 L0,31 L0,0 z"/></clipPath></defs><g clip-path="url(#clip241)" fill="none" opacity="1" stroke="none" stroke-opacity="0" transform="matrix(0.34904,0,0,0.34904,89.9014,39.1489)"><path d="M0,0 L31,0 L31,31 L0,31 L0,0 z" fill-rule="evenodd" vector-effect="none"/></g><defs><clipPath id="clip251"><path d="M-1,-1 L32,-1 L32,32 L-1,32 L-1,-1 z"/></clipPath></defs><g clip-path="url(#clip251)" fill="#000000" fill-opacity="1" opacity="1" stroke="none" stroke-opacity="0" transform="matrix(0.34904,0,0,0.34904,89.9014,39.1489)"><path d="M13.3125,15.2656 C13.3125,15.9323 13.4479,16.4531 13.7188,16.8281 C13.9896,17.2031 14.3646,17.3906 14.8438,17.3906 C15.3125,17.3906 15.6849,17.2031 15.9609,16.8281 C16.237,16.4531 16.375,15.9323 16.375,15.2656 C16.375,14.6094 16.237,14.0938 15.9609,13.7188 C15.6849,13.3438 15.3125,13.1562 14.8438,13.1562 C14.3646,13.1562 13.9896,13.3438 13.7188,13.7188 C13.4479,14.0938 13.3125,14.6094 13.3125,15.2656 M16.375,17.1719 C16.1875,17.5052 15.9479,17.75 15.6562,17.9062 C15.3646,18.0625 15.0156,18.1406 14.6094,18.1406 C13.9531,18.1406 13.4167,17.8776 13,17.3516 C12.5833,16.8255 12.375,16.1302 12.375,15.2656 C12.375,14.4115 12.5833,13.7214 13,13.1953 C13.4167,12.6693 13.9531,12.4062 14.6094,12.4062 C15.0156,12.4062 15.3646,12.4844 15.6562,12.6406 C15.9479,12.7969 16.1875,13.0365 16.375,13.3594 L16.375,12.5312 L17.2656,12.5312 L17.2656,20.0781 L16.375,20.0781 L16.375,17.1719" fill-rule="nonzero" vector-effect="none"/></g><defs><clipPath id="clip268"><path d="M-257.568,-36.8615 L659.232,-36.8615 L659.232,385.539 L-257.568,385.539 L-257.568,-36.8615 z"/></clipPath></defs><g clip-path="url(#clip268)" fill="none" opacity="1" stroke="#000000" stroke-linecap="butt" stroke-linejoin="miter" stroke-miterlimit="2" stroke-opacity="1" stroke-width="1" transform="matrix(0.34904,0,0,0.34904,89.9014,39.1489)"><path d="M0,0 L30,0 L30,30 L0,30 L0,0 z" fill-rule="evenodd" vector-effect="none"/></g><defs><clipPath id="clip271"><path d="M-257.568,-86.8615 L659.232,-86.8615 L659.232,335.539 L-257.568,335.539 L-257.568,-86.8615 z"/></clipPath></defs><g clip-path="url(#clip271)" fill="#ffffff" fill-opacity="1" opacity="1" stroke="none" stroke-opacity="0" transform="matrix(0.34904,0,0,0.34904,89.9014,56.6009)"><path d="M0,0 L30,0 L30,30 L0,30 L0,0 z" fill-rule="evenodd" vector-effect="none"/></g><defs><clipPath id="clip275"><path d="M0,0 L31,0 L31,31 L0,31 L0,0 z"/></clipPath></defs><g clip-path="url(#clip275)" fill="none" opacity="1" stroke="none" stroke-opacity="0" transform="matrix(0.34904,0,0,0.34904,89.9014,56.6009)"><path d="M0,0 L31,0 L31,31 L0,31 L0,0 z" fill-rule="evenodd" vector-effect="none"/></g><defs><clipPath id="clip285"><path d="M-1,-1 L32,-1 L32,32 L-1,32 L-1,-1 z"/></clipPath></defs><g clip-path="url(#clip285)" fill="#000000" fill-opacity="1" opacity="1" stroke="none" stroke-opacity="0" transform="matrix(0.34904,0,0,0.34904,89.9014,56.6009)"><path d="M6.46875,10.7031 L11.0781,10.7031 L11.0781,11.5469 L7.45312,11.5469 L7.45312,13.7031 L10.9219,13.7031 L10.9219,14.5312 L7.45312,14.5312 L7.45312,17.1719 L11.1562,17.1719 L11.1562,18 L6.46875,18 L6.46875,10.7031 M16.3438,15.2031 C16.3438,14.5469 16.2083,14.0417 15.9375,13.6875 C15.6667,13.3333 15.2917,13.1562 14.8125,13.1562 C14.3229,13.1562 13.9453,13.3333 13.6797,13.6875 C13.4141,14.0417 13.2812,14.5469 13.2812,15.2031 C13.2812,15.849 13.4141,16.3516 13.6797,16.7109 C13.9453,17.0703 14.3229,17.25 14.8125,17.25 C15.2917,17.25 15.6667,17.0703 15.9375,16.7109 C16.2083,16.3516 16.3438,15.849 16.3438,15.2031 M17.2344,17.3281 C17.2344,18.2552 17.0286,18.9453 16.6172,19.3984 C16.2057,19.8516 15.5729,20.0781 14.7188,20.0781 C14.4062,20.0781 14.1094,20.0547 13.8281,20.0078 C13.5469,19.9609 13.276,19.8906 13.0156,19.7969 L13.0156,18.9219 C13.276,19.0677 13.5339,19.1745 13.7891,19.2422 C14.0443,19.3099 14.3073,19.3438 14.5781,19.3438 C15.1615,19.3438 15.6016,19.1901 15.8984,18.8828 C16.1953,18.5755 16.3438,18.1094 16.3438,17.4844 L16.3438,17.0312 C16.1562,17.3542 15.9167,17.5964 15.625,17.7578 C15.3333,17.9193 14.9844,18 14.5781,18 C13.9115,18 13.3724,17.7448 12.9609,17.2344 C12.5495,16.724 12.3438,16.0469 12.3438,15.2031 C12.3438,14.3594 12.5495,13.6823 12.9609,13.1719 C13.3724,12.6615 13.9115,12.4062 14.5781,12.4062 C14.9844,12.4062 15.3333,12.4844 15.625,12.6406 C15.9167,12.7969 16.1562,13.0365 16.3438,13.3594 L16.3438,12.5312 L17.2344,12.5312 L17.2344,17.3281 M21.3125,11.3594 C20.8125,11.3594 20.4349,11.6094 20.1797,12.1094 C19.9245,12.6094 19.7969,13.3594 19.7969,14.3594 C19.7969,15.3594 19.9245,16.1094 20.1797,16.6094 C20.4349,17.1094 20.8125,17.3594 21.3125,17.3594 C21.8333,17.3594 22.2214,17.1094 22.4766,16.6094 C22.7318,16.1094 22.8594,15.3594 22.8594,14.3594 C22.8594,13.3594 22.7318,12.6094 22.4766,12.1094 C22.2214,11.6094 21.8333,11.3594 21.3125,11.3594 M21.3125,10.5781 C22.1354,10.5781 22.763,10.901 23.1953,11.5469 C23.6276,12.1927 23.8438,13.1302 23.8438,14.3594 C23.8438,15.5885 23.6276,16.526 23.1953,17.1719 C22.763,17.8177 22.1354,18.1406 21.3125,18.1406 C20.5,18.1406 19.8776,17.8177 19.4453,17.1719 C19.013,16.526 18.7969,15.5885 18.7969,14.3594 C18.7969,13.1302 19.013,12.1927 19.4453,11.5469 C19.8776,10.901 20.5,10.5781 21.3125,10.5781" fill-rule="nonzero" vector-effect="none"/></g><defs><clipPath id="clip302"><path d="M-257.568,-86.8615 L659.232,-86.8615 L659.232,335.539 L-257.568,335.539 L-257.568,-86.8615 z"/></clipPath></defs><g clip-path="url(#clip302)" fill="none" opacity="1" stroke="#000000" stroke-linecap="butt" stroke-linejoin="miter" stroke-miterlimit="2" stroke-opacity="1" stroke-width="1" transform="matrix(0.34904,0,0,0.34904,89.9014,56.6009)"><path d="M0,0 L30,0 L30,30 L0,30 L0,0 z" fill-rule="evenodd" vector-effect="none"/></g><defs><clipPath id="clip305"><path d="M-337.568,-53.8615 L579.232,-53.8615 L579.232,368.539 L-337.568,368.539 L-337.568,-53.8615 z"/></clipPath></defs><g clip-path="url(#clip305)" fill="#ffffff" fill-opacity="1" opacity="1" stroke="none" stroke-opacity="0" transform="matrix(0.34904,0,0,0.34904,117.825,45.0825)"><path d="M0,0 L30,0 L30,31 L0,31 L0,0 z" fill-rule="evenodd" vector-effect="none"/></g><defs><clipPath id="clip309"><path d="M-15,-15 L15,-15 L15,16 L-15,16 L-15,-15 z"/></clipPath></defs><g clip-path="url(#clip309)" fill="none" opacity="1" stroke="#000000" stroke-linecap="butt" stroke-linejoin="miter" stroke-miterlimit="2" stroke-opacity="1" stroke-width="2.865" transform="matrix(0.34904,0,0,0.34904,123.06,50.3181)"><text fill="#000000" fill-opacity="1" font-family="Liberation Sans" font-size="10" font-style="normal" font-weight="400" stroke="none" textLength="5" x="-2.5" xml:space="preserve" y="3.5">x</text></g><defs><clipPath id="clip314"><path d="M-337.568,-53.8615 L579.232,-53.8615 L579.232,368.539 L-337.568,368.539 L-337.568,-53.8615 z"/></clipPath></defs><g clip-path="url(#clip314)" fill="none" opacity="1" stroke="#000000" stroke-linecap="butt" stroke-linejoin="miter" stroke-miterlimit="2" stroke-opacity="1" stroke-width="1" transform="matrix(0.34904,0,0,0.34904,117.825,45.0825)"><path d="M0,0 L30,0 L30,31 L0,31 L0,0 z" fill-rule="evenodd" vector-effect="none"/></g><defs><clipPath id="clip317"><path d="M-487.568,-193.861 L429.232,-193.861 L429.232,228.539 L-487.568,228.539 L-487.568,-193.861 z"/></clipPath></defs><g clip-path="url(#clip317)" fill="#ffffff" fill-opacity="1" opacity="1" stroke="none" stroke-opacity="0" transform="matrix(0.34904,0,0,0.34904,170.181,93.9482)"><path d="M0,0 L30,0 L30,31 L0,31 L0,0 z" fill-rule="evenodd" vector-effect="none"/></g><defs><clipPath id="clip321"><path d="M-15,-15 L15,-15 L15,16 L-15,16 L-15,-15 z"/></clipPath></defs><g clip-path="url(#clip321)" fill="none" opacity="1" stroke="#000000" stroke-linecap="butt" stroke-linejoin="miter" stroke-miterlimit="2" stroke-opacity="1" stroke-width="2.865" transform="matrix(0.34904,0,0,0.34904,175.416,99.1838)"><text fill="#000000" fill-opacity="1" font-family="Liberation Sans" font-size="10" font-style="normal" font-weight="400" stroke="none" textLength="5" x="-2.5" xml:space="preserve" y="3.5">x</text></g><defs><clipPath id="clip326"><path d="M-487.568,-193.861 L429.232,-193.861 L429.232,228.539 L-487.568,228.539 L-487.568,-193.861 z"/></clipPath></defs><g clip-path="url(#clip326)" fill="none" opacity="1" stroke="#000000" stroke-linecap="butt" stroke-linejoin="miter" stroke-miterlimit="2" stroke-opacity="1" stroke-width="1" transform="matrix(0.34904,0,0,0.34904,170.181,93.9482)"><path d="M0,0 L30,0 L30,31 L0,31 L0,0 z" fill-rule="evenodd" vector-effect="none"/></g><defs><clipPath id="clip329"><path d="M-552.568,-196.861 L364.232,-196.861 L364.232,225.539 L-552.568,225.539 L-552.568,-196.861 z"/></clipPath></defs><g clip-path="url(#clip329)" fill="#ffffff" fill-opacity="1" opacity="1" stroke="none" stroke-opacity="0" transform="matrix(0.34904,0,0,0.34904,192.868,94.9953)"><path d="M0,0 L30,0 L30,30 L0,30 L0,0 z" fill-rule="evenodd" vector-effect="none"/></g><defs><clipPath id="clip333"><path d="M0,0 L31,0 L31,31 L0,31 L0,0 z"/></clipPath></defs><g clip-path="url(#clip333)" fill="none" opacity="1" stroke="none" stroke-opacity="0" transform="matrix(0.34904,0,0,0.34904,192.868,94.9953)"><path d="M0,0 L31,0 L31,31 L0,31 L0,0 z" fill-rule="evenodd" vector-effect="none"/></g><defs><clipPath id="clip343"><path d="M-5,-7 L9,-7 L9,12 L-5,12 L-5,-7 z"/></clipPath></defs><g clip-path="url(#clip343)" fill="#000000" fill-opacity="1" opacity="1" stroke="none" stroke-opacity="0" transform="matrix(0.34904,0,0,0.34904,197.231,99.3583)"><path d="M1.40625,6.46875 C0.390625,7.29688 -0.03125,7.53125 -0.65625,7.53125 C-1.4375,7.53125 -1.95312,7.01562 -1.95312,6.25 C-1.95312,6.03125 -1.95312,5.67188 -1.8125,5.39062 C0.6875,5.07812 2.15625,3.98438 2.15625,2.78125 C2.15625,2.1875 1.75,1.82812 1.01562,1.82812 C-1.09375,1.82812 -3.17188,4.0625 -3.17188,6.23438 C-3.17188,7.39062 -2.42188,8.15625 -1.28125,8.15625 C-0.125,8.15625 0.78125,7.625 1.57812,6.64062 L1.40625,6.46875 M-1.48438,4.46875 C-1,3.21875 -0.046875,2.14062 0.75,2.14062 C1.14062,2.14062 1.23438,2.35938 1.23438,2.6875 C1.23438,3.125 0.96875,3.625 0.53125,4.04688 C0.015625,4.54688 -0.515625,4.79688 -1.71875,5.09375 L-1.48438,4.46875" fill-rule="nonzero" vector-effect="none"/></g><defs><clipPath id="clip344"><path d="M-5,-7 L9,-7 L9,12 L-5,12 L-5,-7 z"/></clipPath></defs><g clip-path="url(#clip344)" fill="#000000" fill-opacity="1" opacity="1" stroke="none" stroke-opacity="0" transform="matrix(0.34904,0,0,0.34904,197.231,99.3583)"><path d="M7.20312,0.8125 C6.6875,1.48438 6.53125,1.625 6.375,1.625 C6.29688,1.625 6.26562,1.5625 6.26562,1.45312 C6.26562,1.32812 6.40625,0.859375 6.45312,0.671875 L7.23438,-2.3125 L6.5,-2.3125 C6.01562,-0.984375 5.875,-0.59375 5.40625,0.109375 C4.78125,1.04688 4.32812,1.57812 3.98438,1.57812 C3.82812,1.57812 3.78125,1.48438 3.78125,1.32812 C3.78125,1.29688 3.79688,1.20312 3.8125,1.17188 L4.70312,-2.375 L4.65625,-2.40625 C4.09375,-2.28125 3.73438,-2.20312 3.15625,-2.14062 L3.15625,-2 C3.54688,-2 3.57812,-1.98438 3.65625,-1.9375 C3.71875,-1.90625 3.76562,-1.82812 3.76562,-1.76562 C3.76562,-1.67188 3.71875,-1.42188 3.64062,-1.09375 L3.28125,0.296875 C3.10938,1.03125 3.01562,1.39062 3.01562,1.57812 C3.01562,1.95312 3.1875,2.10938 3.54688,2.10938 C4.25,2.10938 4.75,1.57812 5.9375,-0.359375 C5.60938,0.71875 5.48438,1.39062 5.48438,1.60938 C5.48438,1.92188 5.65625,2.09375 5.96875,2.09375 C6.4375,2.09375 6.6875,1.89062 7.34375,0.90625 L7.20312,0.8125 z" fill-rule="nonzero" vector-effect="none"/></g><defs><clipPath id="clip361"><path d="M-552.568,-196.861 L364.232,-196.861 L364.232,225.539 L-552.568,225.539 L-552.568,-196.861 z"/></clipPath></defs><g clip-path="url(#clip361)" fill="none" opacity="1" stroke="#000000" stroke-linecap="butt" stroke-linejoin="miter" stroke-miterlimit="2" stroke-opacity="1" stroke-width="1" transform="matrix(0.34904,0,0,0.34904,192.868,94.9953)"><path d="M0,0 L30,0 L30,30 L0,30 L0,0 z" fill-rule="evenodd" vector-effect="none"/></g><defs><clipPath id="clip364"><path d="M-482.568,-106.861 L434.232,-106.861 L434.232,315.539 L-482.568,315.539 L-482.568,-106.861 z"/></clipPath></defs><g clip-path="url(#clip364)" fill="#ffffff" fill-opacity="1" opacity="1" stroke="none" stroke-opacity="0" transform="matrix(0.34904,0,0,0.34904,168.435,63.5817)"><path d="M0,0 L30,0 L30,30 L0,30 L0,0 z" fill-rule="evenodd" vector-effect="none"/></g><defs><clipPath id="clip368"><path d="M0,0 L31,0 L31,31 L0,31 L0,0 z"/></clipPath></defs><g clip-path="url(#clip368)" fill="none" opacity="1" stroke="none" stroke-opacity="0" transform="matrix(0.34904,0,0,0.34904,168.435,63.5817)"><path d="M0,0 L31,0 L31,31 L0,31 L0,0 z" fill-rule="evenodd" vector-effect="none"/></g><defs><clipPath id="clip378"><path d="M-1,-1 L32,-1 L32,32 L-1,32 L-1,-1 z"/></clipPath></defs><g clip-path="url(#clip378)" fill="#000000" fill-opacity="1" opacity="1" stroke="none" stroke-opacity="0" transform="matrix(0.34904,0,0,0.34904,168.435,63.5817)"><path d="M8.75,10.7031 L14.9219,10.7031 L14.9219,11.5469 L12.3281,11.5469 L12.3281,18 L11.3438,18 L11.3438,11.5469 L8.75,11.5469 L8.75,10.7031 M20.3594,14.7031 L20.3594,18 L19.4688,18 L19.4688,14.7344 C19.4688,14.2135 19.3672,13.8255 19.1641,13.5703 C18.9609,13.3151 18.6562,13.1875 18.25,13.1875 C17.7708,13.1875 17.3906,13.3411 17.1094,13.6484 C16.8281,13.9557 16.6875,14.375 16.6875,14.9062 L16.6875,18 L15.7812,18 L15.7812,12.5312 L16.6875,12.5312 L16.6875,13.375 C16.9062,13.0521 17.1615,12.8099 17.4531,12.6484 C17.7448,12.487 18.0781,12.4062 18.4531,12.4062 C19.0781,12.4062 19.5521,12.599 19.875,12.9844 C20.1979,13.3698 20.3594,13.9427 20.3594,14.7031" fill-rule="nonzero" vector-effect="none"/></g><defs><clipPath id="clip395"><path d="M-482.568,-106.861 L434.232,-106.861 L434.232,315.539 L-482.568,315.539 L-482.568,-106.861 z"/></clipPath></defs><g clip-path="url(#clip395)" fill="none" opacity="1" stroke="#000000" stroke-linecap="butt" stroke-linejoin="miter" stroke-miterlimit="2" stroke-opacity="1" stroke-width="1" transform="matrix(0.34904,0,0,0.34904,168.435,63.5817)"><path d="M0,0 L30,0 L30,30 L0,30 L0,0 z" fill-rule="evenodd" vector-effect="none"/></g><defs><clipPath id="clip398"><path d="M-572.568,-73.8615 L344.232,-73.8615 L344.232,348.539 L-572.568,348.539 L-572.568,-73.8615 z"/></clipPath></defs><g clip-path="url(#clip398)" fill="#ffffff" fill-opacity="1" opacity="1" stroke="none" stroke-opacity="0" transform="matrix(0.34904,0,0,0.34904,199.849,52.0633)"><path d="M0,0 L30,0 L30,31 L0,31 L0,0 z" fill-rule="evenodd" vector-effect="none"/></g><defs><clipPath id="clip402"><path d="M-7,-8 L23,-8 L23,23 L-7,23 L-7,-8 z"/></clipPath></defs><g clip-path="url(#clip402)" fill="none" opacity="1" stroke="#000000" stroke-linecap="butt" stroke-linejoin="miter" stroke-miterlimit="2" stroke-opacity="1" stroke-width="2.865" transform="matrix(0.34904,0,0,0.34904,202.292,54.8557)"><text fill="#000000" fill-opacity="1" font-family="Liberation Sans" font-size="10" font-style="normal" font-weight="400" stroke="none" textLength="5" x="-2.5" xml:space="preserve" y="3.5">x</text></g><defs><clipPath id="clip403"><path d="M-7,-23 L23,-23 L23,8 L-7,8 L-7,-23 z"/></clipPath></defs><g clip-path="url(#clip403)" fill="none" opacity="1" stroke="#000000" stroke-linecap="butt" stroke-linejoin="miter" stroke-miterlimit="2" stroke-opacity="1" stroke-width="2.865" transform="matrix(0.34904,0,0,0.34904,202.292,60.0913)"><text fill="#000000" fill-opacity="1" font-family="Liberation Sans" font-size="10" font-style="normal" font-weight="400" stroke="none" textLength="5.48438" x="-2.73438" xml:space="preserve" y="3.5">÷</text></g><defs><clipPath id="clip408"><path d="M-572.568,-73.8615 L344.232,-73.8615 L344.232,348.539 L-572.568,348.539 L-572.568,-73.8615 z"/></clipPath></defs><g clip-path="url(#clip408)" fill="none" opacity="1" stroke="#000000" stroke-linecap="butt" stroke-linejoin="miter" stroke-miterlimit="2" stroke-opacity="1" stroke-width="1" transform="matrix(0.34904,0,0,0.34904,199.849,52.0633)"><path d="M0,0 L30,0 L30,31 L0,31 L0,0 z" fill-rule="evenodd" vector-effect="none"/></g><defs><clipPath id="clip411"><path d="M-662.568,-98.8615 L254.232,-98.8615 L254.232,323.539 L-662.568,323.539 L-662.568,-98.8615 z"/></clipPath></defs><g clip-path="url(#clip411)" fill="#ffffff" fill-opacity="1" opacity="1" stroke="none" stroke-opacity="0" transform="matrix(0.34904,0,0,0.34904,231.263,60.7893)"><path d="M0,0 L30,0 L30,31 L0,31 L0,0 z" fill-rule="evenodd" vector-effect="none"/></g><defs><clipPath id="clip415"><path d="M0,0 L31,0 L31,32 L0,32 L0,0 z"/></clipPath></defs><g clip-path="url(#clip415)" fill="none" opacity="1" stroke="none" stroke-opacity="0" transform="matrix(0.34904,0,0,0.34904,231.263,60.7893)"><path d="M0,0 L31,0 L31,32 L0,32 L0,0 z" fill-rule="evenodd" vector-effect="none"/></g><defs><clipPath id="clip425"><path d="M-5,-7 L10,-7 L10,12 L-5,12 L-5,-7 z"/></clipPath></defs><g clip-path="url(#clip425)" fill="#000000" fill-opacity="1" opacity="1" stroke="none" stroke-opacity="0" transform="matrix(0.34904,0,0,0.34904,235.626,65.3269)"><path d="M2.84375,6.32812 C2.14062,7.26562 1.90625,7.46875 1.6875,7.46875 C1.59375,7.46875 1.53125,7.39062 1.53125,7.23438 C1.53125,7.0625 1.73438,6.40625 1.79688,6.14062 L2.90625,1.95312 L1.875,1.95312 C1.1875,3.82812 0.984375,4.35938 0.328125,5.35938 C-0.546875,6.67188 -1.1875,7.40625 -1.65625,7.40625 C-1.875,7.40625 -1.9375,7.26562 -1.9375,7.0625 C-1.9375,7 -1.92188,6.875 -1.90625,6.84375 L-0.65625,1.85938 L-0.703125,1.82812 C-1.51562,2 -2.01562,2.10938 -2.8125,2.20312 L-2.8125,2.39062 C-2.28125,2.39062 -2.23438,2.40625 -2.10938,2.48438 C-2.03125,2.51562 -1.95312,2.64062 -1.95312,2.73438 C-1.95312,2.84375 -2.04688,3.20312 -2.15625,3.67188 L-2.64062,5.625 C-2.89062,6.64062 -3.01562,7.14062 -3.01562,7.40625 C-3.01562,7.9375 -2.76562,8.15625 -2.28125,8.15625 C-1.28125,8.15625 -0.578125,7.40625 1.0625,4.6875 C0.625,6.20312 0.4375,7.14062 0.4375,7.45312 C0.4375,7.89062 0.6875,8.125 1.10938,8.125 C1.76562,8.125 2.14062,7.84375 3.04688,6.45312 L2.84375,6.32812 z" fill-rule="nonzero" vector-effect="none"/></g><defs><clipPath id="clip426"><path d="M-5,-7 L10,-7 L10,12 L-5,12 L-5,-7 z"/></clipPath></defs><g clip-path="url(#clip426)" fill="#000000" fill-opacity="1" opacity="1" stroke="none" stroke-opacity="0" transform="matrix(0.34904,0,0,0.34904,235.626,65.3269)"><path d="M5.4375,1.29688 C5.39062,-0.046875 5.32812,-0.59375 5.1875,-1.26562 C4.98438,-2.34375 4.98438,-2.40625 4.89062,-2.40625 C4.84375,-2.40625 4.78125,-2.39062 4.6875,-2.375 C4.375,-2.29688 4.03125,-2.23438 3.57812,-2.15625 L3.57812,-2.03125 C3.6875,-2.03125 3.78125,-2.03125 3.89062,-2.03125 C4.25,-2.03125 4.35938,-1.875 4.5,-1.10938 C4.625,-0.34375 4.73438,0.984375 4.73438,1.67188 L4.73438,1.90625 C4.73438,2.07812 4.76562,2.1875 4.82812,2.1875 C5,2.1875 5.26562,1.84375 5.8125,1.26562 C6,1.07812 6.54688,0.4375 7,-0.265625 C7.35938,-0.8125 7.625,-1.39062 7.625,-1.8125 C7.625,-2.09375 7.40625,-2.40625 7.07812,-2.40625 C6.85938,-2.40625 6.6875,-2.28125 6.6875,-2.0625 C6.6875,-1.90625 6.76562,-1.78125 6.9375,-1.625 C7.07812,-1.5 7.125,-1.42188 7.125,-1.32812 C7.125,-0.859375 6.46875,0.234375 5.75,0.984375 L5.4375,1.29688 z" fill-rule="nonzero" vector-effect="none"/></g><defs><clipPath id="clip443"><path d="M-662.568,-98.8615 L254.232,-98.8615 L254.232,323.539 L-662.568,323.539 L-662.568,-98.8615 z"/></clipPath></defs><g clip-path="url(#clip443)" fill="none" opacity="1" stroke="#000000" stroke-linecap="butt" stroke-linejoin="miter" stroke-miterlimit="2" stroke-opacity="1" stroke-width="1" transform="matrix(0.34904,0,0,0.34904,231.263,60.7893)"><path d="M0,0 L30,0 L30,31 L0,31 L0,0 z" fill-rule="evenodd" vector-effect="none"/></g><defs><clipPath id="clip446"><path d="M-572.568,-141.861 L344.232,-141.861 L344.232,280.539 L-572.568,280.539 L-572.568,-141.861 z"/></clipPath></defs><g clip-path="url(#clip446)" fill="#ffffff" fill-opacity="1" opacity="1" stroke="none" stroke-opacity="0" transform="matrix(0.34904,0,0,0.34904,199.849,75.7981)"><path d="M0,0 L30,0 L30,30 L0,30 L0,0 z" fill-rule="evenodd" vector-effect="none"/></g><defs><clipPath id="clip450"><path d="M0,0 L31,0 L31,31 L0,31 L0,0 z"/></clipPath></defs><g clip-path="url(#clip450)" fill="none" opacity="1" stroke="none" stroke-opacity="0" transform="matrix(0.34904,0,0,0.34904,199.849,75.7981)"><path d="M0,0 L31,0 L31,31 L0,31 L0,0 z" fill-rule="evenodd" vector-effect="none"/></g><defs><clipPath id="clip460"><path d="M-1,-1 L32,-1 L32,32 L-1,32 L-1,-1 z"/></clipPath></defs><g clip-path="url(#clip460)" fill="#000000" fill-opacity="1" opacity="1" stroke="none" stroke-opacity="0" transform="matrix(0.34904,0,0,0.34904,199.849,75.7981)"><path d="M15.875,14.0625 C16.3438,14.1667 16.7109,14.3776 16.9766,14.6953 C17.2422,15.013 17.375,15.4062 17.375,15.875 C17.375,16.5938 17.1276,17.151 16.6328,17.5469 C16.138,17.9427 15.4323,18.1406 14.5156,18.1406 C14.2135,18.1406 13.901,18.1094 13.5781,18.0469 C13.2552,17.9844 12.9219,17.8958 12.5781,17.7812 L12.5781,16.8281 C12.849,16.9844 13.1484,17.1042 13.4766,17.1875 C13.8047,17.2708 14.1458,17.3125 14.5,17.3125 C15.1146,17.3125 15.5833,17.1901 15.9062,16.9453 C16.2292,16.7005 16.3906,16.3438 16.3906,15.875 C16.3906,15.4479 16.2396,15.1146 15.9375,14.875 C15.6354,14.6354 15.2188,14.5156 14.6875,14.5156 L13.8281,14.5156 L13.8281,13.7031 L14.7188,13.7031 C15.2083,13.7031 15.5807,13.6042 15.8359,13.4062 C16.0911,13.2083 16.2188,12.9271 16.2188,12.5625 C16.2188,12.1979 16.0859,11.9141 15.8203,11.7109 C15.5547,11.5078 15.1771,11.4062 14.6875,11.4062 C14.4167,11.4062 14.125,11.4349 13.8125,11.4922 C13.5,11.5495 13.1615,11.6406 12.7969,11.7656 L12.7969,10.8906 C13.1719,10.7865 13.5234,10.7083 13.8516,10.6562 C14.1797,10.6042 14.4844,10.5781 14.7656,10.5781 C15.5156,10.5781 16.1094,10.7474 16.5469,11.0859 C16.9844,11.4245 17.2031,11.8854 17.2031,12.4688 C17.2031,12.875 17.0885,13.2161 16.8594,13.4922 C16.6302,13.7682 16.3021,13.9583 15.875,14.0625 z" fill-rule="nonzero" vector-effect="none"/></g><defs><clipPath id="clip477"><path d="M-572.568,-141.861 L344.232,-141.861 L344.232,280.539 L-572.568,280.539 L-572.568,-141.861 z"/></clipPath></defs><g clip-path="url(#clip477)" fill="none" opacity="1" stroke="#000000" stroke-linecap="butt" stroke-linejoin="miter" stroke-miterlimit="2" stroke-opacity="1" stroke-width="1" transform="matrix(0.34904,0,0,0.34904,199.849,75.7981)"><path d="M0,0 L30,0 L30,30 L0,30 L0,0 z" fill-rule="evenodd" vector-effect="none"/></g><defs><clipPath id="clip480"><path d="M-722.568,-188.861 L194.232,-188.861 L194.232,233.539 L-722.568,233.539 L-722.568,-188.861 z"/></clipPath></defs><g clip-path="url(#clip480)" fill="#ffffff" fill-opacity="1" opacity="1" stroke="none" stroke-opacity="0" transform="matrix(0.34904,0,0,0.34904,252.205,92.203)"><path d="M0,0 L30,0 L30,31 L0,31 L0,0 z" fill-rule="evenodd" vector-effect="none"/></g><defs><clipPath id="clip484"><path d="M-15,-15 L15,-15 L15,16 L-15,16 L-15,-15 z"/></clipPath></defs><g clip-path="url(#clip484)" fill="none" opacity="1" stroke="#000000" stroke-linecap="butt" stroke-linejoin="miter" stroke-miterlimit="2" stroke-opacity="1" stroke-width="2.865" transform="matrix(0.34904,0,0,0.34904,257.441,97.4386)"><text fill="#000000" fill-opacity="1" font-family="Liberation Sans" font-size="10" font-style="normal" font-weight="400" stroke="none" textLength="5" x="-2.5" xml:space="preserve" y="3.5">x</text></g><defs><clipPath id="clip489"><path d="M-722.568,-188.861 L194.232,-188.861 L194.232,233.539 L-722.568,233.539 L-722.568,-188.861 z"/></clipPath></defs><g clip-path="url(#clip489)" fill="none" opacity="1" stroke="#000000" stroke-linecap="butt" stroke-linejoin="miter" stroke-miterlimit="2" stroke-opacity="1" stroke-width="1" transform="matrix(0.34904,0,0,0.34904,252.205,92.203)"><path d="M0,0 L30,0 L30,31 L0,31 L0,0 z" fill-rule="evenodd" vector-effect="none"/></g><defs><clipPath id="clip492"><path d="M-782.568,-198.861 L134.232,-198.861 L134.232,223.539 L-782.568,223.539 L-782.568,-198.861 z"/></clipPath></defs><g clip-path="url(#clip492)" fill="#ffffff" fill-opacity="1" opacity="1" stroke="none" stroke-opacity="0" transform="matrix(0.34904,0,0,0.34904,273.147,95.6934)"><path d="M0,0 L30,0 L30,31 L0,31 L0,0 z" fill-rule="evenodd" vector-effect="none"/></g><defs><clipPath id="clip496"><path d="M-15,-15 L15,-15 L15,16 L-15,16 L-15,-15 z"/></clipPath></defs><g clip-path="url(#clip496)" fill="none" opacity="1" stroke="#000000" stroke-linecap="butt" stroke-linejoin="miter" stroke-miterlimit="2" stroke-opacity="1" stroke-width="2.865" transform="matrix(0.34904,0,0,0.34904,278.383,100.929)"><text fill="#000000" fill-opacity="1" font-family="Liberation Sans" font-size="10" font-style="normal" font-weight="400" stroke="none" textLength="5" x="-2.5" xml:space="preserve" y="3.5">x</text></g><defs><clipPath id="clip501"><path d="M-782.568,-198.861 L134.232,-198.861 L134.232,223.539 L-782.568,223.539 L-782.568,-198.861 z"/></clipPath></defs><g clip-path="url(#clip501)" fill="none" opacity="1" stroke="#000000" stroke-linecap="butt" stroke-linejoin="miter" stroke-miterlimit="2" stroke-opacity="1" stroke-width="1" transform="matrix(0.34904,0,0,0.34904,273.147,95.6934)"><path d="M0,0 L30,0 L30,31 L0,31 L0,0 z" fill-rule="evenodd" vector-effect="none"/></g><defs><clipPath id="clip504"><path d="M-62.5675,-269.861 L854.232,-269.861 L854.232,152.539 L-62.5675,152.539 L-62.5675,-269.861 z"/></clipPath></defs><g clip-path="url(#clip504)" fill="#ffffff" fill-opacity="1" opacity="1" stroke="none" stroke-opacity="0" transform="matrix(0.34904,0,0,0.34904,21.8386,120.475)"><path d="M7,0 L23,0 C26.866,0 30,3.13401 30,7 C30,10.866 26.866,14 23,14 L7,14 C3.13401,14 0,10.866 0,7 C0,3.13401 3.13401,0 7,0 z" fill-rule="nonzero" vector-effect="none"/></g><defs><clipPath id="clip508"><path d="M-15,-7 L15,-7 L15,7 L-15,7 L-15,-7 z"/></clipPath></defs><g clip-path="url(#clip508)" fill="none" opacity="1" stroke="#000000" stroke-linecap="butt" stroke-linejoin="miter" stroke-miterlimit="2" stroke-opacity="1" stroke-width="2.865" transform="matrix(0.34904,0,0,0.34904,27.0742,122.918)"><text fill="#000000" fill-opacity="1" font-family="Liberation Sans" font-size="10" font-style="normal" font-weight="400" stroke="none" textLength="5.54688" x="-2.76562" xml:space="preserve" y="3.5">1</text></g><defs><clipPath id="clip513"><path d="M-62.5675,-269.861 L854.232,-269.861 L854.232,152.539 L-62.5675,152.539 L-62.5675,-269.861 z"/></clipPath></defs><g clip-path="url(#clip513)" fill="none" opacity="1" stroke="#000000" stroke-linecap="butt" stroke-linejoin="miter" stroke-miterlimit="2" stroke-opacity="1" stroke-width="1" transform="matrix(0.34904,0,0,0.34904,21.8386,120.475)"><path d="M7,0 L23,0 C26.866,0 30,3.13401 30,7 C30,10.866 26.866,14 23,14 L7,14 C3.13401,14 0,10.866 0,7 C0,3.13401 3.13401,0 7,0 z" fill-rule="nonzero" vector-effect="none"/></g><defs><clipPath id="clip519"><path d="M0,0 L8,0 L8,15 L0,15 L0,0 z"/></clipPath></defs><g clip-path="url(#clip519)" fill="none" opacity="1" stroke="#000000" stroke-linecap="square" stroke-linejoin="bevel" stroke-opacity="1" stroke-width="1" transform="matrix(0.34904,0,0,0.34904,25.6617,126.06)"><text fill="#000000" fill-opacity="1" font-family="Liberation Sans" font-size="10" font-style="normal" font-weight="400" stroke="none" textLength="6.09375" x="1" xml:space="preserve" y="11">T</text></g><defs><clipPath id="clip527"><path d="M-477.568,-254.861 L439.232,-254.861 L439.232,167.539 L-477.568,167.539 L-477.568,-254.861 z"/></clipPath></defs><g clip-path="url(#clip527)" fill="#ffffff" fill-opacity="1" opacity="1" stroke="none" stroke-opacity="0" transform="matrix(0.34904,0,0,0.34904,166.69,115.24)"><path d="M7,0 L23,0 C26.866,0 30,3.13401 30,7 C30,10.866 26.866,14 23,14 L7,14 C3.13401,14 0,10.866 0,7 C0,3.13401 3.13401,0 7,0 z" fill-rule="nonzero" vector-effect="none"/></g><defs><clipPath id="clip531"><path d="M-15,-7 L15,-7 L15,7 L-15,7 L-15,-7 z"/></clipPath></defs><g clip-path="url(#clip531)" fill="none" opacity="1" stroke="#000000" stroke-linecap="butt" stroke-linejoin="miter" stroke-miterlimit="2" stroke-opacity="1" stroke-width="2.865" transform="matrix(0.34904,0,0,0.34904,171.926,117.683)"><text fill="#000000" fill-opacity="1" font-family="Liberation Sans" font-size="10" font-style="normal" font-weight="400" stroke="none" textLength="5.54688" x="-2.76562" xml:space="preserve" y="3.5">2</text></g><defs><clipPath id="clip536"><path d="M-477.568,-254.861 L439.232,-254.861 L439.232,167.539 L-477.568,167.539 L-477.568,-254.861 z"/></clipPath></defs><g clip-path="url(#clip536)" fill="none" opacity="1" stroke="#000000" stroke-linecap="butt" stroke-linejoin="miter" stroke-miterlimit="2" stroke-opacity="1" stroke-width="1" transform="matrix(0.34904,0,0,0.34904,166.69,115.24)"><path d="M7,0 L23,0 C26.866,0 30,3.13401 30,7 C30,10.866 26.866,14 23,14 L7,14 C3.13401,14 0,10.866 0,7 C0,3.13401 3.13401,0 7,0 z" fill-rule="nonzero" vector-effect="none"/></g><defs><clipPath id="clip542"><path d="M0,0 L13,0 L13,15 L0,15 L0,0 z"/></clipPath></defs><g clip-path="url(#clip542)" fill="none" opacity="1" stroke="#000000" stroke-linecap="square" stroke-linejoin="bevel" stroke-opacity="1" stroke-width="1" transform="matrix(0.34904,0,0,0.34904,169.641,120.824)"><text fill="#000000" fill-opacity="1" font-family="Liberation Sans" font-size="10" font-style="normal" font-weight="400" stroke="none" textLength="11.0938" x="1" xml:space="preserve" y="11">Irs</text></g><defs><clipPath id="clip550"><path d="M-842.568,-209.861 L74.2325,-209.861 L74.2325,212.539 L-842.568,212.539 L-842.568,-209.861 z"/></clipPath></defs><g clip-path="url(#clip550)" fill="#ffffff" fill-opacity="1" opacity="1" stroke="none" stroke-opacity="0" transform="matrix(0.34904,0,0,0.34904,294.09,99.5328)"><path d="M7,0 L23,0 C26.866,0 30,3.13401 30,7 C30,10.866 26.866,14 23,14 L7,14 C3.13401,14 0,10.866 0,7 C0,3.13401 3.13401,0 7,0 z" fill-rule="nonzero" vector-effect="none"/></g><defs><clipPath id="clip554"><path d="M-15,-7 L15,-7 L15,7 L-15,7 L-15,-7 z"/></clipPath></defs><g clip-path="url(#clip554)" fill="none" opacity="1" stroke="#000000" stroke-linecap="butt" stroke-linejoin="miter" stroke-miterlimit="2" stroke-opacity="1" stroke-width="2.865" transform="matrix(0.34904,0,0,0.34904,299.325,101.976)"><text fill="#000000" fill-opacity="1" font-family="Liberation Sans" font-size="10" font-style="normal" font-weight="400" stroke="none" textLength="5.54688" x="-2.76562" xml:space="preserve" y="3.5">1</text></g><defs><clipPath id="clip559"><path d="M-842.568,-209.861 L74.2325,-209.861 L74.2325,212.539 L-842.568,212.539 L-842.568,-209.861 z"/></clipPath></defs><g clip-path="url(#clip559)" fill="none" opacity="1" stroke="#000000" stroke-linecap="butt" stroke-linejoin="miter" stroke-miterlimit="2" stroke-opacity="1" stroke-width="1" transform="matrix(0.34904,0,0,0.34904,294.09,99.5328)"><path d="M7,0 L23,0 C26.866,0 30,3.13401 30,7 C30,10.866 26.866,14 23,14 L7,14 C3.13401,14 0,10.866 0,7 C0,3.13401 3.13401,0 7,0 z" fill-rule="nonzero" vector-effect="none"/></g><defs><clipPath id="clip565"><path d="M0,0 L10,0 L10,15 L0,15 L0,0 z"/></clipPath></defs><g clip-path="url(#clip565)" fill="none" opacity="1" stroke="#000000" stroke-linecap="square" stroke-linejoin="bevel" stroke-opacity="1" stroke-width="1" transform="matrix(0.34904,0,0,0.34904,297.526,105.117)"><text fill="#000000" fill-opacity="1" font-family="Liberation Sans" font-size="10" font-style="normal" font-weight="400" stroke="none" textLength="8.3125" x="1" xml:space="preserve" y="11">I0</text></g><defs><clipPath id="clip573"><path d="M-177.568,-106.861 L739.232,-106.861 L739.232,315.539 L-177.568,315.539 L-177.568,-106.861 z"/></clipPath></defs><g clip-path="url(#clip573)" fill="#000000" fill-opacity="1" opacity="1" stroke="none" stroke-opacity="0" transform="matrix(0.34904,0,0,0.34904,61.9782,63.5817)"><path d="M0,0 L-8,-4 L-8,4 L0,0 z" fill-rule="nonzero" vector-effect="none"/></g><defs><clipPath id="clip576"><path d="M-42.5675,108.139 L874.232,108.139 L874.232,530.539 L-42.5675,530.539 L-42.5675,108.139 z"/></clipPath></defs><g clip-path="url(#clip576)" fill="none" opacity="1" stroke="#000000" stroke-linecap="butt" stroke-linejoin="miter" stroke-miterlimit="2" stroke-opacity="1" stroke-width="1" transform="matrix(0.34904,0,0,0.34904,14.8578,-11.462)"><path d="M70.6,200.441 L99.25,200.441 L99.25,217.631 L128.495,217.631" fill-rule="evenodd" vector-effect="none"/></g><defs><clipPath id="clip579"><path d="M-177.568,-121.861 L739.232,-121.861 L739.232,300.539 L-177.568,300.539 L-177.568,-121.861 z"/></clipPath></defs><g clip-path="url(#clip579)" fill="#000000" fill-opacity="1" opacity="1" stroke="none" stroke-opacity="0" transform="matrix(0.34904,0,0,0.34904,61.9782,68.8173)"><path d="M0,0 L-8,-4 L-8,4 L0,0 z" fill-rule="nonzero" vector-effect="none"/></g><defs><clipPath id="clip582"><path d="M-42.5675,108.139 L874.232,108.139 L874.232,530.539 L-42.5675,530.539 L-42.5675,108.139 z"/></clipPath></defs><g clip-path="url(#clip582)" fill="none" opacity="1" stroke="#000000" stroke-linecap="butt" stroke-linejoin="miter" stroke-miterlimit="2" stroke-opacity="1" stroke-width="1" transform="matrix(0.34904,0,0,0.34904,14.8578,-11.462)"><path d="M70.6,257.741 L102.115,257.741 L102.115,231.956 L128.495,231.956" fill-rule="evenodd" vector-effect="none"/></g><defs><clipPath id="clip585"><path d="M-177.568,-236.861 L739.232,-236.861 L739.232,185.539 L-177.568,185.539 L-177.568,-236.861 z"/></clipPath></defs><g clip-path="url(#clip585)" fill="#000000" fill-opacity="1" opacity="1" stroke="none" stroke-opacity="0" transform="matrix(0.34904,0,0,0.34904,61.9782,108.957)"><path d="M0,0 L-8,-4 L-8,4 L0,0 z" fill-rule="nonzero" vector-effect="none"/></g><defs><clipPath id="clip588"><path d="M-42.5675,108.139 L874.232,108.139 L874.232,530.539 L-42.5675,530.539 L-42.5675,108.139 z"/></clipPath></defs><g clip-path="url(#clip588)" fill="none" opacity="1" stroke="#000000" stroke-linecap="butt" stroke-linejoin="miter" stroke-miterlimit="2" stroke-opacity="1" stroke-width="1" transform="matrix(0.34904,0,0,0.34904,14.8578,-11.462)"><path d="M70.6,320.771 L102.115,320.771 L102.115,346.556 L128.495,346.556" fill-rule="evenodd" vector-effect="none"/></g><defs><clipPath id="clip591"><path d="M-247.568,-151.861 L669.232,-151.861 L669.232,270.539 L-247.568,270.539 L-247.568,-151.861 z"/></clipPath></defs><g clip-path="url(#clip591)" fill="#000000" fill-opacity="1" opacity="1" stroke="none" stroke-opacity="0" transform="matrix(0.34904,0,0,0.34904,86.411,79.2885)"><path d="M0,0 L-8,-4 L-8,4 L0,0 z" fill-rule="nonzero" vector-effect="none"/></g><defs><clipPath id="clip594"><path d="M-42.5675,108.139 L874.232,108.139 L874.232,530.539 L-42.5675,530.539 L-42.5675,108.139 z"/></clipPath></defs><g clip-path="url(#clip594)" fill="none" opacity="1" stroke="#000000" stroke-linecap="butt" stroke-linejoin="miter" stroke-miterlimit="2" stroke-opacity="1" stroke-width="1" transform="matrix(0.34904,0,0,0.34904,14.8578,-11.462)"><path d="M165.145,226.226 L185.2,226.226 L185.2,260.606 L197.255,260.606" fill-rule="evenodd" vector-effect="none"/></g><defs><clipPath id="clip597"><path d="M-247.568,-166.861 L669.232,-166.861 L669.232,255.539 L-247.568,255.539 L-247.568,-166.861 z"/></clipPath></defs><g clip-path="url(#clip597)" fill="#000000" fill-opacity="1" opacity="1" stroke="none" stroke-opacity="0" transform="matrix(0.34904,0,0,0.34904,86.411,84.5241)"><path d="M0,0 L-8,-4 L-8,4 L0,0 z" fill-rule="nonzero" vector-effect="none"/></g><defs><clipPath id="clip600"><path d="M-42.5675,108.139 L874.232,108.139 L874.232,530.539 L-42.5675,530.539 L-42.5675,108.139 z"/></clipPath></defs><g clip-path="url(#clip600)" fill="none" opacity="1" stroke="#000000" stroke-linecap="butt" stroke-linejoin="miter" stroke-miterlimit="2" stroke-opacity="1" stroke-width="1" transform="matrix(0.34904,0,0,0.34904,14.8578,-11.462)"><path d="M165.145,355.151 L185.2,355.151 L185.2,274.931 L197.255,274.931" fill-rule="evenodd" vector-effect="none"/></g><defs><clipPath id="clip603"><path d="M-312.568,-331.861 L604.232,-331.861 L604.232,90.5385 L-312.568,90.5385 L-312.568,-331.861 z"/></clipPath></defs><g clip-path="url(#clip603)" fill="#000000" fill-opacity="1" opacity="1" stroke="none" stroke-opacity="0" transform="matrix(0.34904,0,0,0.34904,109.099,142.116)"><path d="M0,0 L-8,-4 L-8,4 L0,0 z" fill-rule="nonzero" vector-effect="none"/></g><defs><clipPath id="clip606"><path d="M-42.5675,108.139 L874.232,108.139 L874.232,530.539 L-42.5675,530.539 L-42.5675,108.139 z"/></clipPath></defs><g clip-path="url(#clip606)" fill="none" opacity="1" stroke="#000000" stroke-linecap="butt" stroke-linejoin="miter" stroke-miterlimit="2" stroke-opacity="1" stroke-width="1" transform="matrix(0.34904,0,0,0.34904,14.8578,-11.462)"><path d="M210.985,426.776 L239.635,426.776 L239.635,441.101 L263.15,441.101" fill-rule="evenodd" vector-effect="none"/></g><defs><clipPath id="clip609"><path d="M-312.568,-346.861 L604.232,-346.861 L604.232,75.5385 L-312.568,75.5385 L-312.568,-346.861 z"/></clipPath></defs><g clip-path="url(#clip609)" fill="#000000" fill-opacity="1" opacity="1" stroke="none" stroke-opacity="0" transform="matrix(0.34904,0,0,0.34904,109.099,147.351)"><path d="M0,0 L-8,-4 L-8,4 L0,0 z" fill-rule="nonzero" vector-effect="none"/></g><defs><clipPath id="clip612"><path d="M-42.5675,108.139 L874.232,108.139 L874.232,530.539 L-42.5675,530.539 L-42.5675,108.139 z"/></clipPath></defs><g clip-path="url(#clip612)" fill="none" opacity="1" stroke="#000000" stroke-linecap="butt" stroke-linejoin="miter" stroke-miterlimit="2" stroke-opacity="1" stroke-width="1" transform="matrix(0.34904,0,0,0.34904,14.8578,-11.462)"><path d="M210.985,481.211 L239.635,481.211 L239.635,455.426 L263.15,455.426" fill-rule="evenodd" vector-effect="none"/></g><defs><clipPath id="clip615"><path d="M-422.568,-206.861 L494.232,-206.861 L494.232,215.539 L-422.568,215.539 L-422.568,-206.861 z"/></clipPath></defs><g clip-path="url(#clip615)" fill="#000000" fill-opacity="1" opacity="1" stroke="none" stroke-opacity="0" transform="matrix(0.34904,0,0,0.34904,147.493,98.4857)"><path d="M0,0 L-8,-4 L-8,4 L0,0 z" fill-rule="nonzero" vector-effect="none"/></g><defs><clipPath id="clip618"><path d="M-42.5675,108.139 L874.232,108.139 L874.232,530.539 L-42.5675,530.539 L-42.5675,108.139 z"/></clipPath></defs><g clip-path="url(#clip618)" fill="none" opacity="1" stroke="#000000" stroke-linecap="butt" stroke-linejoin="miter" stroke-miterlimit="2" stroke-opacity="1" stroke-width="1" transform="matrix(0.34904,0,0,0.34904,14.8578,-11.462)"><path d="M236.77,272.066 L308.395,272.066 L308.395,315.041 L372.02,315.041" fill-rule="evenodd" vector-effect="none"/></g><defs><clipPath id="clip621"><path d="M-422.568,-221.861 L494.232,-221.861 L494.232,200.539 L-422.568,200.539 L-422.568,-221.861 z"/></clipPath></defs><g clip-path="url(#clip621)" fill="#000000" fill-opacity="1" opacity="1" stroke="none" stroke-opacity="0" transform="matrix(0.34904,0,0,0.34904,147.493,103.721)"><path d="M0,0 L-8,-4 L-8,4 L0,0 z" fill-rule="nonzero" vector-effect="none"/></g><defs><clipPath id="clip624"><path d="M-42.5675,108.139 L874.232,108.139 L874.232,530.539 L-42.5675,530.539 L-42.5675,108.139 z"/></clipPath></defs><g clip-path="url(#clip624)" fill="none" opacity="1" stroke="#000000" stroke-linecap="butt" stroke-linejoin="miter" stroke-miterlimit="2" stroke-opacity="1" stroke-width="1" transform="matrix(0.34904,0,0,0.34904,14.8578,-11.462)"><path d="M299.8,452.561 L339.91,452.561 L339.91,332.231 L372.02,332.231" fill-rule="evenodd" vector-effect="none"/></g><defs><clipPath id="clip627"><path d="M-337.568,-61.8615 L579.232,-61.8615 L579.232,360.539 L-337.568,360.539 L-337.568,-61.8615 z"/></clipPath></defs><g clip-path="url(#clip627)" fill="#000000" fill-opacity="1" opacity="1" stroke="none" stroke-opacity="0" transform="matrix(0.34904,0,0,0.34904,117.825,47.8749)"><path d="M0,0 L-8,-4 L-8,4 L0,0 z" fill-rule="nonzero" vector-effect="none"/></g><defs><clipPath id="clip630"><path d="M-42.5675,108.139 L874.232,108.139 L874.232,530.539 L-42.5675,530.539 L-42.5675,108.139 z"/></clipPath></defs><g clip-path="url(#clip630)" fill="none" opacity="1" stroke="#000000" stroke-linecap="butt" stroke-linejoin="miter" stroke-miterlimit="2" stroke-opacity="1" stroke-width="1" transform="matrix(0.34904,0,0,0.34904,14.8578,-11.462)"><path d="M245.365,160.331 L265.42,160.331 L265.42,171.791 L286.07,171.791" fill-rule="evenodd" vector-effect="none"/></g><defs><clipPath id="clip633"><path d="M-337.568,-76.8615 L579.232,-76.8615 L579.232,345.539 L-337.568,345.539 L-337.568,-76.8615 z"/></clipPath></defs><g clip-path="url(#clip633)" fill="#000000" fill-opacity="1" opacity="1" stroke="none" stroke-opacity="0" transform="matrix(0.34904,0,0,0.34904,117.825,53.1105)"><path d="M0,0 L-8,-4 L-8,4 L0,0 z" fill-rule="nonzero" vector-effect="none"/></g><defs><clipPath id="clip636"><path d="M-42.5675,108.139 L874.232,108.139 L874.232,530.539 L-42.5675,530.539 L-42.5675,108.139 z"/></clipPath></defs><g clip-path="url(#clip636)" fill="none" opacity="1" stroke="#000000" stroke-linecap="butt" stroke-linejoin="miter" stroke-miterlimit="2" stroke-opacity="1" stroke-width="1" transform="matrix(0.34904,0,0,0.34904,14.8578,-11.462)"><path d="M245.365,211.901 L271.15,211.901 L271.15,186.116 L286.07,186.116" fill-rule="evenodd" vector-effect="none"/></g><defs><clipPath id="clip639"><path d="M-487.568,-201.861 L429.232,-201.861 L429.232,220.539 L-487.568,220.539 L-487.568,-201.861 z"/></clipPath></defs><g clip-path="url(#clip639)" fill="#000000" fill-opacity="1" opacity="1" stroke="none" stroke-opacity="0" transform="matrix(0.34904,0,0,0.34904,170.181,96.7405)"><path d="M0,0 L-8,-4 L-8,4 L0,0 z" fill-rule="nonzero" vector-effect="none"/></g><defs><clipPath id="clip642"><path d="M-42.5675,108.139 L874.232,108.139 L874.232,530.539 L-42.5675,530.539 L-42.5675,108.139 z"/></clipPath></defs><g clip-path="url(#clip642)" fill="none" opacity="1" stroke="#000000" stroke-linecap="butt" stroke-linejoin="miter" stroke-miterlimit="2" stroke-opacity="1" stroke-width="1" transform="matrix(0.34904,0,0,0.34904,14.8578,-11.462)"><path d="M325.585,180.386 L425.86,180.386 L425.86,312.176 L437.915,312.176" fill-rule="evenodd" vector-effect="none"/></g><defs><clipPath id="clip645"><path d="M-487.568,-216.861 L429.232,-216.861 L429.232,205.539 L-487.568,205.539 L-487.568,-216.861 z"/></clipPath></defs><g clip-path="url(#clip645)" fill="#000000" fill-opacity="1" opacity="1" stroke="none" stroke-opacity="0" transform="matrix(0.34904,0,0,0.34904,170.181,101.976)"><path d="M0,0 L-8,-4 L-8,4 L0,0 z" fill-rule="nonzero" vector-effect="none"/></g><defs><clipPath id="clip648"><path d="M-42.5675,108.139 L874.232,108.139 L874.232,530.539 L-42.5675,530.539 L-42.5675,108.139 z"/></clipPath></defs><g clip-path="url(#clip648)" fill="none" opacity="1" stroke="#000000" stroke-linecap="butt" stroke-linejoin="miter" stroke-miterlimit="2" stroke-opacity="1" stroke-width="1" transform="matrix(0.34904,0,0,0.34904,14.8578,-11.462)"><path d="M411.535,326.501 L437.915,326.501" fill-rule="evenodd" vector-effect="none"/></g><defs><clipPath id="clip651"><path d="M-552.568,-211.861 L364.232,-211.861 L364.232,210.539 L-552.568,210.539 L-552.568,-211.861 z"/></clipPath></defs><g clip-path="url(#clip651)" fill="#000000" fill-opacity="1" opacity="1" stroke="none" stroke-opacity="0" transform="matrix(0.34904,0,0,0.34904,192.868,100.231)"><path d="M0,0 L-8,-4 L-8,4 L0,0 z" fill-rule="nonzero" vector-effect="none"/></g><defs><clipPath id="clip654"><path d="M-42.5675,108.139 L874.232,108.139 L874.232,530.539 L-42.5675,530.539 L-42.5675,108.139 z"/></clipPath></defs><g clip-path="url(#clip654)" fill="none" opacity="1" stroke="#000000" stroke-linecap="butt" stroke-linejoin="miter" stroke-miterlimit="2" stroke-opacity="1" stroke-width="1" transform="matrix(0.34904,0,0,0.34904,14.8578,-11.462)"><path d="M474.565,320.771 L503.81,320.771" fill-rule="evenodd" vector-effect="none"/></g><defs><clipPath id="clip657"><path d="M-572.568,-96.8615 L344.232,-96.8615 L344.232,325.539 L-572.568,325.539 L-572.568,-96.8615 z"/></clipPath></defs><g clip-path="url(#clip657)" fill="#000000" fill-opacity="1" opacity="1" stroke="none" stroke-opacity="0" transform="matrix(0.34904,0,0,0.34904,199.849,60.0913)"><path d="M0,0 L-8,-4 L-8,4 L0,0 z" fill-rule="nonzero" vector-effect="none"/></g><defs><clipPath id="clip660"><path d="M-42.5675,108.139 L874.232,108.139 L874.232,530.539 L-42.5675,530.539 L-42.5675,108.139 z"/></clipPath></defs><g clip-path="url(#clip660)" fill="none" opacity="1" stroke="#000000" stroke-linecap="butt" stroke-linejoin="miter" stroke-miterlimit="2" stroke-opacity="1" stroke-width="1" transform="matrix(0.34904,0,0,0.34904,14.8578,-11.462)"><path d="M471.7,231.956 L500.35,231.956 L500.35,206.171 L521,206.171" fill-rule="evenodd" vector-effect="none"/></g><defs><clipPath id="clip663"><path d="M-662.568,-106.861 L254.232,-106.861 L254.232,315.539 L-662.568,315.539 L-662.568,-106.861 z"/></clipPath></defs><g clip-path="url(#clip663)" fill="#000000" fill-opacity="1" opacity="1" stroke="none" stroke-opacity="0" transform="matrix(0.34904,0,0,0.34904,231.263,63.5817)"><path d="M0,0 L-8,-4 L-8,4 L0,0 z" fill-rule="nonzero" vector-effect="none"/></g><defs><clipPath id="clip666"><path d="M-42.5675,108.139 L874.232,108.139 L874.232,530.539 L-42.5675,530.539 L-42.5675,108.139 z"/></clipPath></defs><g clip-path="url(#clip666)" fill="none" opacity="1" stroke="#000000" stroke-linecap="butt" stroke-linejoin="miter" stroke-miterlimit="2" stroke-opacity="1" stroke-width="1" transform="matrix(0.34904,0,0,0.34904,14.8578,-11.462)"><path d="M560.515,200.441 L586.3,200.441 L586.3,217.631 L612.68,217.631" fill-rule="evenodd" vector-effect="none"/></g><defs><clipPath id="clip669"><path d="M-662.568,-121.861 L254.232,-121.861 L254.232,300.539 L-662.568,300.539 L-662.568,-121.861 z"/></clipPath></defs><g clip-path="url(#clip669)" fill="#000000" fill-opacity="1" opacity="1" stroke="none" stroke-opacity="0" transform="matrix(0.34904,0,0,0.34904,231.263,68.8173)"><path d="M0,0 L-8,-4 L-8,4 L0,0 z" fill-rule="nonzero" vector-effect="none"/></g><defs><clipPath id="clip672"><path d="M-42.5675,108.139 L874.232,108.139 L874.232,530.539 L-42.5675,530.539 L-42.5675,108.139 z"/></clipPath></defs><g clip-path="url(#clip672)" fill="none" opacity="1" stroke="#000000" stroke-linecap="butt" stroke-linejoin="miter" stroke-miterlimit="2" stroke-opacity="1" stroke-width="1" transform="matrix(0.34904,0,0,0.34904,14.8578,-11.462)"><path d="M560.515,266.336 L589.165,266.336 L589.165,231.956 L612.68,231.956" fill-rule="evenodd" vector-effect="none"/></g><defs><clipPath id="clip675"><path d="M-722.568,-196.861 L194.232,-196.861 L194.232,225.539 L-722.568,225.539 L-722.568,-196.861 z"/></clipPath></defs><g clip-path="url(#clip675)" fill="#000000" fill-opacity="1" opacity="1" stroke="none" stroke-opacity="0" transform="matrix(0.34904,0,0,0.34904,252.205,94.9953)"><path d="M0,0 L-8,-4 L-8,4 L0,0 z" fill-rule="nonzero" vector-effect="none"/></g><defs><clipPath id="clip678"><path d="M-42.5675,108.139 L874.232,108.139 L874.232,530.539 L-42.5675,530.539 L-42.5675,108.139 z"/></clipPath></defs><g clip-path="url(#clip678)" fill="none" opacity="1" stroke="#000000" stroke-linecap="butt" stroke-linejoin="miter" stroke-miterlimit="2" stroke-opacity="1" stroke-width="1" transform="matrix(0.34904,0,0,0.34904,14.8578,-11.462)"><path d="M649.33,226.226 L666.52,226.226 L666.52,306.446 L672.845,306.446" fill-rule="evenodd" vector-effect="none"/></g><defs><clipPath id="clip681"><path d="M-722.568,-211.861 L194.232,-211.861 L194.232,210.539 L-722.568,210.539 L-722.568,-211.861 z"/></clipPath></defs><g clip-path="url(#clip681)" fill="#000000" fill-opacity="1" opacity="1" stroke="none" stroke-opacity="0" transform="matrix(0.34904,0,0,0.34904,252.205,100.231)"><path d="M0,0 L-8,-4 L-8,4 L0,0 z" fill-rule="nonzero" vector-effect="none"/></g><defs><clipPath id="clip684"><path d="M-42.5675,108.139 L874.232,108.139 L874.232,530.539 L-42.5675,530.539 L-42.5675,108.139 z"/></clipPath></defs><g clip-path="url(#clip684)" fill="none" opacity="1" stroke="#000000" stroke-linecap="butt" stroke-linejoin="miter" stroke-miterlimit="2" stroke-opacity="1" stroke-width="1" transform="matrix(0.34904,0,0,0.34904,14.8578,-11.462)"><path d="M540.46,320.771 L672.845,320.771" fill-rule="evenodd" vector-effect="none"/></g><defs><clipPath id="clip687"><path d="M-782.568,-206.861 L134.232,-206.861 L134.232,215.539 L-782.568,215.539 L-782.568,-206.861 z"/></clipPath></defs><g clip-path="url(#clip687)" fill="#000000" fill-opacity="1" opacity="1" stroke="none" stroke-opacity="0" transform="matrix(0.34904,0,0,0.34904,273.147,98.4857)"><path d="M0,0 L-8,-4 L-8,4 L0,0 z" fill-rule="nonzero" vector-effect="none"/></g><defs><clipPath id="clip690"><path d="M-42.5675,108.139 L874.232,108.139 L874.232,530.539 L-42.5675,530.539 L-42.5675,108.139 z"/></clipPath></defs><g clip-path="url(#clip690)" fill="none" opacity="1" stroke="#000000" stroke-linecap="butt" stroke-linejoin="miter" stroke-miterlimit="2" stroke-opacity="1" stroke-width="1" transform="matrix(0.34904,0,0,0.34904,14.8578,-11.462)"><path d="M709.495,315.041 L733.01,315.041" fill-rule="evenodd" vector-effect="none"/></g><defs><clipPath id="clip695"><path d="M-42.5675,108.139 L874.232,108.139 L874.232,530.539 L-42.5675,530.539 L-42.5675,108.139 z"/></clipPath></defs><g clip-path="url(#clip695)" fill="none" opacity="1" stroke="#000000" stroke-linecap="butt" stroke-linejoin="miter" stroke-miterlimit="2" stroke-opacity="1" stroke-width="1" transform="matrix(0.34904,0,0,0.34904,14.8578,-11.462)"><path d="M50.545,386.666 L96.385,386.666 L96.385,369.476" fill-rule="evenodd" vector-effect="none"/></g><defs><clipPath id="clip698"><path d="M-572.568,-81.8615 L344.232,-81.8615 L344.232,340.539 L-572.568,340.539 L-572.568,-81.8615 z"/></clipPath></defs><g clip-path="url(#clip698)" fill="#000000" fill-opacity="1" opacity="1" stroke="none" stroke-opacity="0" transform="matrix(0.34904,0,0,0.34904,199.849,54.8557)"><path d="M0,0 L-8,-4 L-8,4 L0,0 z" fill-rule="nonzero" vector-effect="none"/></g><defs><clipPath id="clip701"><path d="M-42.5675,108.139 L874.232,108.139 L874.232,530.539 L-42.5675,530.539 L-42.5675,108.139 z"/></clipPath></defs><g clip-path="url(#clip701)" fill="none" opacity="1" stroke="#000000" stroke-linecap="butt" stroke-linejoin="miter" stroke-miterlimit="2" stroke-opacity="1" stroke-width="1" transform="matrix(0.34904,0,0,0.34904,14.8578,-11.462)"><path d="M96.385,369.476 L4.70496,369.476 L4.70496,137.411 L514.675,137.411 L514.675,191.846 L521,191.846" fill-rule="evenodd" vector-effect="none"/></g><defs><clipPath id="clip704"><path d="M-177.568,-251.861 L739.232,-251.861 L739.232,170.539 L-177.568,170.539 L-177.568,-251.861 z"/></clipPath></defs><g clip-path="url(#clip704)" fill="#000000" fill-opacity="1" opacity="1" stroke="none" stroke-opacity="0" transform="matrix(0.34904,0,0,0.34904,61.9782,114.192)"><path d="M0,0 L-8,-4 L-8,4 L0,0 z" fill-rule="nonzero" vector-effect="none"/></g><defs><clipPath id="clip707"><path d="M-42.5675,108.139 L874.232,108.139 L874.232,530.539 L-42.5675,530.539 L-42.5675,108.139 z"/></clipPath></defs><g clip-path="url(#clip707)" fill="none" opacity="1" stroke="#000000" stroke-linecap="butt" stroke-linejoin="miter" stroke-miterlimit="2" stroke-opacity="1" stroke-width="1" transform="matrix(0.34904,0,0,0.34904,14.8578,-11.462)"><path d="M96.385,369.476 L96.385,360.881 L128.495,360.881" fill-rule="evenodd" vector-effect="none"/></g><defs><clipPath id="clip710"><path d="M-139.568,-260.861 L777.232,-260.861 L777.232,161.539 L-139.568,161.539 L-139.568,-260.861 z"/></clipPath></defs><g clip-path="url(#clip710)" fill="#000000" fill-opacity="1" opacity="1" stroke="none" stroke-opacity="0" transform="matrix(0.34904,0,0,0.34904,48.7147,117.334)"><path d="M1.88496,0.47603 C1.88496,1.85674 0.765667,2.97603 -0.615045,2.97603 C-1.99576,2.97603 -3.11504,1.85674 -3.11504,0.47603 C-3.11504,-0.904682 -1.99576,-2.02397 -0.615045,-2.02397 C0.765667,-2.02397 1.88496,-0.904682 1.88496,0.47603 z" fill-rule="evenodd" vector-effect="none"/></g><defs><clipPath id="clip713"><path d="M-782.568,-221.861 L134.232,-221.861 L134.232,200.539 L-782.568,200.539 L-782.568,-221.861 z"/></clipPath></defs><g clip-path="url(#clip713)" fill="#000000" fill-opacity="1" opacity="1" stroke="none" stroke-opacity="0" transform="matrix(0.34904,0,0,0.34904,273.147,103.721)"><path d="M0,0 L-8,-4 L-8,4 L0,0 z" fill-rule="nonzero" vector-effect="none"/></g><defs><clipPath id="clip716"><path d="M-42.5675,108.139 L874.232,108.139 L874.232,530.539 L-42.5675,530.539 L-42.5675,108.139 z"/></clipPath></defs><g clip-path="url(#clip716)" fill="none" opacity="1" stroke="#000000" stroke-linecap="butt" stroke-linejoin="miter" stroke-miterlimit="2" stroke-opacity="1" stroke-width="1" transform="matrix(0.34904,0,0,0.34904,14.8578,-11.462)"><path d="M465.97,372.341 L726.685,372.341 L726.685,332.231 L733.01,332.231" fill-rule="evenodd" vector-effect="none"/></g><defs><clipPath id="clip719"><path d="M-842.568,-216.861 L74.2325,-216.861 L74.2325,205.539 L-842.568,205.539 L-842.568,-216.861 z"/></clipPath></defs><g clip-path="url(#clip719)" fill="#000000" fill-opacity="1" opacity="1" stroke="none" stroke-opacity="0" transform="matrix(0.34904,0,0,0.34904,294.09,101.976)"><path d="M0,0 L-8,-4 L-8,4 L0,0 z" fill-rule="nonzero" vector-effect="none"/></g><defs><clipPath id="clip722"><path d="M-42.5675,108.139 L874.232,108.139 L874.232,530.539 L-42.5675,530.539 L-42.5675,108.139 z"/></clipPath></defs><g clip-path="url(#clip722)" fill="none" opacity="1" stroke="#000000" stroke-linecap="butt" stroke-linejoin="miter" stroke-miterlimit="2" stroke-opacity="1" stroke-width="1" transform="matrix(0.34904,0,0,0.34904,14.8578,-11.462)"><path d="M769.66,326.501 L793.175,326.501" fill-rule="evenodd" vector-effect="none"/></g></g><!--generated on ubuntu @ 2022-07-09 22:57:24 UTC--></svg>
